<svg xmlns="http://www.w3.org/2000/svg" viewBox="0 0 970.054 264.334">
    <g fill="#334666">
        <path d="M353.475 151.819h33.594c2.799 0 4.199-1.398 4.199-4.199v-54.59h16.797v62.988c0 8.398-4.199 12.598-12.598 12.598h-50.391c-8.398 0-12.598-4.199-12.598-12.598v-62.988h16.797v54.59c0 2.8 1.399 4.199 4.2 4.199zM437.358 168.616v50.391h-16.797v-125.977h62.988c8.398 0 12.598 4.199 12.598 12.598v50.391c0 8.398-4.199 12.598-12.598 12.598h-46.191zm37.793-58.789h-37.793v41.992h37.793c2.799 0 4.199-1.398 4.199-4.199v-33.594c0-2.799-1.4-4.199-4.199-4.199zM584.229 126.624c0 5.6-5.6 9.799-16.797 12.598l-33.594 8.398v-16.797l16.797-4.199c11.197-2.799 16.797-5.598 16.797-8.398v-4.199c0-2.799-1.4-4.199-4.199-4.199h-33.593c-2.801 0-4.199 1.4-4.199 4.199v33.594c0 2.801 1.398 4.199 4.199 4.199h54.59v16.797h-62.988c-8.398 0-12.598-4.199-12.598-12.598v-50.391c0-8.398 4.199-12.598 12.598-12.598h50.391c8.398 0 12.598 4.199 12.598 12.598v20.996zM613.523 168.616h-16.797v-75.586h62.988c8.398 0 12.598 4.199 12.598 12.598v12.598h-16.797v-4.199c0-2.799-1.4-4.199-4.199-4.199h-37.793v58.788zM747.798 122.424c8.398 0 12.598 4.199 12.598 12.598v20.996c0 8.398-4.199 12.598-12.598 12.598h-62.988v-16.797h54.59c2.799 0 4.199-1.398 4.199-4.199v-4.199c0-2.799-1.4-4.199-4.199-4.199h-41.992c-8.398 0-12.598-4.199-12.598-12.598v-20.996c0-8.398 4.199-12.598 12.598-12.598h62.988v16.797h-54.59c-2.801 0-4.199 1.4-4.199 4.199v4.199c0 2.8 1.428 4.199 4.283 4.199h41.908zM772.893 151.819h16.797v16.797h-16.797v-16.797zM818.983 168.616v50.391h-16.797v-125.977h62.988c8.398 0 12.598 4.199 12.598 12.598v50.391c0 8.398-4.199 12.598-12.598 12.598h-46.191zm37.793-58.789h-37.793v41.992h37.793c2.799 0 4.199-1.398 4.199-4.199v-33.594c.001-2.799-1.4-4.199-4.199-4.199zM917.479 177.014l-31.41-83.984h20.996l20.996 54.674 20.996-54.674h20.996l-44.092 115.479c-2.801 6.998-7.699 10.498-14.697 10.498h-20.996v-16.797h12.598c2.799 0 4.871-1.4 6.215-4.199l8.398-20.997z"/>
    </g>
    <path fill="#334666" d="M115.292 146.278c7.746-4.7 18.698-.81 24.463 8.688.542.894.998 1.808 1.411 2.729 4.208-1.709 8.471-3.438 12.741-5.169l-9.231 2.167c-6.058-13.474-19.365-20.65-29.828-16.035-3.403 1.501-6.074 4.077-7.946 7.322-16.017-9.786-25.067-4.698-27.826-2.522-6.628-11.18-18.5-16.737-28.017-12.54-4.686 2.069-7.999 6.158-9.713 11.255l-1.796.421c-1.425.335-2.309 1.762-1.975 3.187.287 1.222 1.375 2.046 2.578 2.046l.011-.002c-.506 5.098.328 10.722 2.73 16.165 6.013 13.623 19.413 20.905 29.933 16.263 8.408-3.708 12.413-13.912 10.622-24.814 7.841-15.072 16.477-3.903 20.363 2.761-.032 4.366.877 9.011 2.871 13.531l.007.015 3.991-1.631c-4.501-9.092-2.631-19.443 4.611-23.837zm-42.909 26.663c-7.745 4.703-18.697.81-24.463-8.69-5.767-9.498-4.162-21.013 3.583-25.713 7.746-4.7 18.698-.81 24.463 8.688 5.767 9.502 4.163 21.015-3.583 25.715z"/>
    <path fill="#fff" d="M51.502 138.538c-7.745 4.7-9.349 16.215-3.583 25.713 5.767 9.5 16.719 13.394 24.463 8.69 7.746-4.7 9.35-16.213 3.582-25.715-5.764-9.498-16.715-13.389-24.462-8.688zm21.686 25.965c-.634 1.688-1.831 3.305-3.492 4.421-1.66 1.12-3.742 1.59-5.646 1.403-1.919-.176-3.655-.828-5.231-1.617-3.164-1.601-5.617-4.116-7.356-6.953-1.709-2.857-2.753-6.048-2.995-9.241l.416-.082c.897 3.019 2.313 5.816 4.302 8.088.968 1.148 2.06 2.174 3.246 3.031 1.171.871 2.443 1.58 3.757 2.054 1.311.479 2.691.652 3.938.524 1.252-.112 2.358-.394 3.432-.87 1.072-.482 2.096-1.251 3.065-2.282.959-1.035 1.817-2.307 2.759-3.693l.414.093c.232 1.687.047 3.439-.609 5.124z"/>
    <path fill="#334666" d="M73.382 159.286c-.942 1.387-1.799 2.658-2.759 3.693-.969 1.031-1.994 1.8-3.065 2.282-1.073.477-2.18.758-3.432.87-1.247.128-2.627-.046-3.938-.524-1.314-.474-2.586-1.183-3.757-2.054-1.186-.857-2.278-1.883-3.246-3.031-1.988-2.271-3.404-5.069-4.302-8.088l-.416.082c.242 3.193 1.286 6.384 2.995 9.241 1.739 2.837 4.192 5.353 7.356 6.953 1.576.789 3.312 1.441 5.231 1.617 1.904.187 3.986-.283 5.646-1.403 1.661-1.116 2.858-2.733 3.492-4.421.656-1.686.841-3.438.609-5.125l-.414-.092z"/>
    <path fill="#fff" d="M115.292 146.278c-7.242 4.395-9.112 14.745-4.611 23.836l4-1.633c-1.37-2.588-2.211-5.405-2.425-8.225l.416-.083c.83 2.791 2.125 5.37 3.882 7.543 7.686-3.135 16.029-6.534 24.611-10.021-.413-.921-.869-1.835-1.411-2.729-5.764-9.498-16.716-13.388-24.462-8.688z"/>
    <path fill="#334666" d="M112.256 160.256c.213 2.819 1.055 5.637 2.425 8.225l1.874-.765c-1.758-2.173-3.052-4.752-3.882-7.543l-.417.083z"/>
    <path fill-rule="evenodd" clip-rule="evenodd" d="M70.333 184.382c-1.375.296-2.788.45-4.231.45-10.458 0-20.954-7.859-26.117-19.559-2.182-4.945-3.25-10.182-3.136-15.288-1.163-.798-2.027-2.017-2.37-3.479-.734-3.129 1.213-6.272 4.342-7.009l.146-.034c.602-1.446 1.331-2.788 2.158-4.032-23.463 9.57-41.125 16.824-41.125 16.824l48.675 77.469s14.322-11.07 34.532-24.852l-12.874-20.49z"/>
    <path d="M298.985 151.819c2.799 0 4.199-1.398 4.199-4.199v-4.199c0-2.799-1.4-4.199-4.199-4.199h-30.807l-4.535 12.598h35.342z" fill="none"/>
    <path fill="#334666" d="M265.392 109.827h54.59v-16.797h-62.988c-8.398 0-12.598 4.199-12.598 12.598v15.357c5.483-1.547 11.284-2.68 16.816-2.471l-.02-.289v-4.199c0-2.799 1.399-4.199 4.2-4.199zM307.384 122.424h-33.158l-6.047 16.797h30.807c2.799 0 4.199 1.4 4.199 4.199v4.199c0 2.801-1.4 4.199-4.199 4.199h-54.59v16.797h62.988c8.398 0 12.598-4.199 12.598-12.598v-20.996c-.001-8.397-4.2-12.597-12.598-12.597z"/>
    <path d="M261.212 118.514c-5.532-.209-11.333.923-16.816 2.471-4.557 1.286-8.894 2.857-12.674 4.181-22.709 7.951-153.567 61.7-153.567 61.7l48.675 77.469s73.724-56.99 122.716-73.354l8.051-22.365h-13.201v-16.797h19.248l4.535-12.598 6.047-16.797c-3.917-2.615-8.371-3.735-13.014-3.91z"/>
    <path fill-rule="evenodd" clip-rule="evenodd" d="M23.995 103.913c0 41.992 97.904 35.971 125.801 35.971s116.672-21.618 116.672-45.079c0-23.464-88.102-25.939-121.237-25.939s-121.236-6.238-121.236 35.047z"/>
    <path fill-rule="evenodd" clip-rule="evenodd" fill="#fff" d="M140.955 114.437c-34.352-.002-59.482-8.524-65.687-16.542-1.859-2.404-1.843-4.48-1.5-5.798-.178-16.695 144.868-21.033 144.866-3.994-1.066 13.859-36.406 23.841-61.507 25.721-5.432.406-10.87.613-16.164.613h-.008z"/>
    <path d="M146.158 89.893c49.503-1.141 66.008-18.41 68.855-21.916-1.306-19.349-4.987-45.66-12.772-52.502-3.675-3.439-12.954-4.866-19.782-5.6-35.143-2.803-54.49 2.781-68.781 6.913-5.959 1.723-11.105 3.211-16.181 3.746-.603.063-1.176.095-1.717.095-2.127 0-3.763-.497-4.906-1.47-1.479 1.678-2.756 3.446-3.843 5.311-4.519 7.749-5.61 30.771-7.503 49.782 3.05 2.988 19.672 16.711 66.63 15.641z"/>
    <path fill="#334666" d="M215.201 70.979c-5.665 5.923-23.809 19.992-68.994 21.031-1.824.043-3.611.063-5.346.063-39.865.001-56.426-10.694-61.607-15.164-.647 6.077-1.399 11.635-2.408 15.985-1.855 7.156 30.479 21.468 80.042 17.757 27.533-2.061 57.779-12.457 58.574-22.793.225-2.922.179-9.18-.261-16.879z"/>
    <path d="M97.276 18.425c4.889-.515 9.952-1.979 15.814-3.673 13.033-3.769 30.227-8.731 59.536-7.589-8.406-4.358-25.332-9.803-44.583-5.721-17.381 3.686-28.624 9.038-35.714 16.165.988.781 2.64 1.063 4.947.818z"/>
    <path fill="#fff" d="M97.498 20.534c5.076-.534 10.222-2.022 16.181-3.746 14.291-4.131 33.638-9.716 68.781-6.913-2.587-.278-4.824-.457-6.27-.608-.911-.632-2.115-1.353-3.564-2.105-29.309-1.142-46.502 3.821-59.536 7.589-5.862 1.695-10.925 3.159-15.814 3.673-2.307.246-3.958-.037-4.947-.819-.506.509-.991 1.026-1.455 1.553 1.143.973 2.779 1.47 4.906 1.47.541.001 1.115-.031 1.718-.094zM146.105 15.463c-5.619.013-11.189 1.005-16.416 2.873-5.22 1.828-10.197 4.495-14.174 8.166-3.983 3.639-6.576 8.626-6.066 13.541.215 2.472 1.259 4.906 2.713 7.154 1.469 2.252 3.34 4.319 5.329 6.345l-.188.257c-2.545-1.307-4.917-3.03-6.909-5.232-1.991-2.184-3.567-4.96-4.097-8.099-.54-3.136.185-6.438 1.697-9.107 1.517-2.687 3.586-4.9 5.845-6.77 4.547-3.736 9.882-6.181 15.371-7.769 5.516-1.512 11.264-2.172 16.907-1.675l-.012.316zM215.201 70.979c-.056-.978-.119-1.981-.188-3.002-2.847 3.505-19.352 20.774-68.855 21.916-46.958 1.07-63.58-12.652-66.63-15.642-.089.896-.181 1.783-.273 2.659 5.181 4.47 21.742 15.166 61.607 15.164 1.735 0 3.522-.02 5.346-.063 7.629-.175 14.471-.729 20.629-1.544l-.028.011s2.892 8.629 2.979 18.643c8.701-.058 16.176-3.482 16.176-3.482s1.92-9.219-2.115-18.468c18.555-4.92 27.637-12.307 31.352-16.192z"/>
</svg>
